<svg width="243" height="242" viewBox="0 0 243 242" fill="none" xmlns="http://www.w3.org/2000/svg">
<g clip-path="url(#clip0_1077_9347)">
<path d="M202.945 99.4716L185.655 119.742V157.432C185.655 177.732 169.145 194.252 148.845 194.252H86.3652C74.5852 194.252 64.0852 188.692 57.3452 180.042C56.1152 180.232 54.8152 180.332 53.4252 180.332C48.9452 180.332 37.6952 177.292 37.6952 170.112C37.6952 166.762 40.4252 164.042 43.7752 164.042C44.7952 164.042 45.6352 164.282 46.3252 164.552C46.3252 164.552 49.5552 165.802 49.5552 163.712V94.9516C49.5452 74.6516 66.0652 58.1316 86.3552 58.1316H148.835C184.035 58.1316 196.145 83.0116 203.675 94.0616C204.795 95.7016 204.215 97.9716 202.935 99.4816" fill="white"/>
<path d="M197.185 94.5616C194.625 91.0016 187.865 81.2616 183.385 77.6316C179.625 74.6316 175.215 72.4916 169.685 72.8416C160.125 73.4516 152.195 81.4916 147.165 87.4916C143.255 92.1416 131.295 99.5716 118.525 102.942C108.875 105.482 97.9952 104.192 89.3652 103.572C84.5952 103.232 80.2152 102.882 76.4552 103.072C62.8952 103.752 54.8152 113.702 55.1352 125.222C55.4652 136.922 63.5052 147.562 63.5052 158.542C63.5052 167.152 56.5052 170.952 51.6752 170.952C45.9052 170.952 45.5252 168.602 43.7652 168.602C43.0552 168.602 42.2252 169.192 42.2252 170.132C42.2252 173.042 49.3552 175.812 53.4052 175.812C64.2252 175.812 68.7252 168.092 68.7252 168.092C68.7252 168.092 71.4752 176.092 82.1452 176.092C90.6452 176.092 94.3252 172.022 94.3252 168.632C94.3252 165.942 93.0552 164.952 91.9352 163.672C82.9652 155.312 79.8752 149.472 81.3852 143.742C82.9252 137.892 89.0852 134.012 93.7852 134.082C93.7852 134.082 87.3152 137.692 85.9552 144.262C84.5552 151.002 91.8252 157.552 93.7252 158.262C93.7252 158.262 95.6452 158.262 96.1852 158.212C100.985 157.782 102.525 155.522 102.525 153.312C102.525 150.142 98.8152 150.362 98.8152 145.152C98.8152 141.212 100.995 139.922 102.925 139.922C105.005 139.922 112.885 140.682 122.435 141.662C125.625 141.982 133.575 145.062 133.575 157.412V161.852C133.575 169.382 136.605 178.692 149.915 178.692C158.955 178.692 164.025 173.652 164.025 170.012C164.025 167.632 161.945 166.592 160.915 165.162C157.905 160.942 159.385 155.072 159.385 155.072H159.445C160.715 155.482 162.165 155.722 163.865 155.722C170.525 155.722 173.655 153.082 173.655 149.922C173.655 146.232 168.665 146.252 168.145 143.002C167.495 138.952 168.575 121.022 175.545 111.112L181.055 113.592C181.875 113.962 182.845 113.742 183.415 113.052L197.095 97.0316C197.675 96.3316 197.715 95.3316 197.185 94.5816" fill="#FF6022"/>
<path d="M68.5752 134.142C65.9052 131.472 64.2552 127.782 64.2552 123.722C64.2552 115.582 71.5252 107.812 79.6652 107.762C87.9352 107.712 99.6452 109.852 110.195 108.962C112.795 121.322 121.725 129.672 129.235 135.142C124.975 133.632 111.315 123.632 103.625 119.372C91.3852 112.582 78.7752 111.232 72.3252 117.172C66.7752 122.282 67.5452 129.842 68.5752 134.132" fill="white"/>
<path d="M155.635 150.282V150.232C155.635 150.232 148.665 156.862 151.855 168.902C149.915 170.792 145.465 170.072 143.555 169.782C144.795 171.362 154.355 174.842 157.735 169.092C151.215 164.042 155.495 151.132 155.635 150.292" fill="white"/>
<path d="M183.435 88.7416C182.975 91.2816 180.125 92.9016 177.055 92.3416C173.985 91.7816 171.885 89.2716 172.355 86.7316C172.815 84.1816 175.665 82.5716 178.745 83.1316C181.795 83.6816 183.905 86.2016 183.435 88.7416Z" fill="white"/>
<path d="M170.675 110.042C158.535 109.322 149.725 102.102 147.245 95.8216C146.675 94.3816 147.555 93.4016 148.425 93.0016C149.285 92.6116 150.725 92.8516 151.265 94.2416C154.685 102.982 161.615 107.482 170.675 110.052" fill="white"/>
<path d="M166.415 119.872C149.895 119.422 140.995 112.842 136.395 103.212C135.905 102.192 136.185 100.892 137.465 100.322C138.745 99.7516 139.875 100.322 140.305 101.412C144.535 112.172 155.755 118.472 166.415 119.872Z" fill="white"/>
<path d="M124.055 108.622C130.575 124.132 145.125 131.262 163.335 130.282C146.525 129.002 133.585 121.242 128.045 107.062C127.525 105.722 126.415 105.392 125.395 105.712C124.365 106.022 123.435 107.172 124.055 108.632" fill="white"/>
<path d="M188.025 89.3116C188.025 89.3116 188.215 95.2916 181.375 98.3116C174.585 101.312 168.755 96.8816 168.465 96.6616C168.035 96.3416 167.765 95.8316 167.765 95.2616C167.765 94.2916 168.545 93.5116 169.515 93.5116C169.965 93.5116 170.375 93.6816 170.685 93.9516C171.005 94.2416 174.765 98.0616 180.965 96.5516C187.155 95.0316 188.045 89.3216 188.045 89.3216" fill="white"/>
<path d="M167.715 85.8215C167.595 86.6515 166.875 87.3015 166.005 87.3015C165.045 87.3015 164.275 86.5315 164.275 85.5715C164.275 85.4015 164.305 85.2315 164.345 85.0815C164.485 84.6115 166.195 79.0515 172.445 77.6015C178.565 76.1815 182.625 79.2415 182.625 79.2415C182.625 79.2415 178.135 76.7115 172.975 79.0515C168.775 80.8715 167.785 85.2915 167.705 85.8315" fill="white"/>
</g>
<defs>
<clipPath id="clip0_1077_9347">
<rect width="166.59" height="136.12" fill="white" transform="translate(37.6952 58.1316)"/>
</clipPath>
</defs>
</svg>
