<?xml version="1.0" encoding="UTF-8"?><svg id="Layer_1" xmlns="http://www.w3.org/2000/svg" viewBox="0 0 960 1080"><defs><style>.cls-1{fill:#2f9e4d;}.cls-2{fill:#293142;}</style></defs><g><path class="cls-2" d="M326.74,600.89c2.97,0,5.5,1.05,7.59,3.14,2.09,2.09,3.14,4.62,3.14,7.59s-1.05,5.5-3.14,7.59-4.62,3.14-7.59,3.14h-37.56c-1.47,0-2.73,.53-3.78,1.58s-1.58,2.32-1.58,3.78,.53,2.73,1.58,3.78c1.06,1.06,2.32,1.58,3.78,1.58h21.46c7.4,0,13.73,2.62,18.97,7.86s7.86,11.56,7.86,18.97-2.62,13.73-7.86,18.97c-5.24,5.24-11.56,7.86-18.97,7.86h-10.73c-2.97,0-5.5-1.05-7.59-3.14-2.09-2.09-3.14-4.62-3.14-7.59s1.05-5.5,3.14-7.59c2.09-2.09,4.62-3.14,7.59-3.14h10.73c1.47,0,2.73-.53,3.78-1.58,1.06-1.06,1.58-2.32,1.58-3.78s-.53-2.73-1.58-3.78c-1.06-1.06-2.32-1.58-3.78-1.58h-21.46c-7.4,0-13.73-2.62-18.97-7.86-5.24-5.24-7.86-11.56-7.86-18.97s2.62-13.73,7.86-18.97c5.24-5.24,11.56-7.86,18.97-7.86h37.56Z"/><path class="cls-2" d="M409.51,600.89c2.97,0,5.5,1.05,7.59,3.14,2.09,2.09,3.14,4.62,3.14,7.59s-1.05,5.5-3.14,7.59c-2.09,2.09-4.62,3.14-7.59,3.14h-16.1v42.92c0,2.97-1.05,5.5-3.14,7.59-2.09,2.09-4.62,3.14-7.59,3.14s-5.5-1.05-7.59-3.14c-2.09-2.09-3.14-4.62-3.14-7.59v-42.92h-16.1c-2.97,0-5.5-1.05-7.59-3.14s-3.14-4.62-3.14-7.59,1.05-5.5,3.14-7.59c2.09-2.09,4.62-3.14,7.59-3.14h53.65Z"/><path class="cls-2" d="M481.54,611.62c0-2.97,1.05-5.5,3.14-7.59,2.09-2.09,4.62-3.14,7.59-3.14s5.5,1.05,7.59,3.14c2.09,2.09,3.14,4.62,3.14,7.59v26.83c0,10.37-3.67,19.23-11,26.56-7.33,7.33-16.19,11-26.56,11s-19.23-3.67-26.56-11c-7.33-7.33-11-16.19-11-26.56v-26.83c0-2.97,1.05-5.5,3.14-7.59,2.09-2.09,4.62-3.14,7.59-3.14s5.5,1.05,7.59,3.14,3.14,4.62,3.14,7.59v26.83c0,4.44,1.57,8.23,4.72,11.37,3.15,3.15,6.94,4.72,11.37,4.72s8.23-1.57,11.37-4.72c3.15-3.15,4.72-6.94,4.72-11.37v-26.83Z"/><path class="cls-2" d="M548.21,600.89c10.37,0,19.23,3.67,26.56,11,7.33,7.33,11,16.19,11,26.56s-3.67,19.23-11,26.56c-7.33,7.33-16.19,11-26.56,11h-26.83c-2.97,0-5.5-1.05-7.59-3.14-2.09-2.09-3.14-4.62-3.14-7.59v-53.65c0-2.97,1.05-5.5,3.14-7.59,2.09-2.09,4.62-3.14,7.59-3.14h26.83Zm0,53.65c4.44,0,8.23-1.57,11.37-4.72s4.72-6.94,4.72-11.37-1.57-8.23-4.72-11.37-6.94-4.72-11.37-4.72h-16.1v32.19h16.1Z"/><path class="cls-2" d="M614.88,665.27c0,2.97-1.05,5.5-3.14,7.59-2.09,2.09-4.62,3.14-7.59,3.14s-5.5-1.05-7.59-3.14-3.14-4.62-3.14-7.59v-53.65c0-2.97,1.05-5.5,3.14-7.59,2.09-2.09,4.62-3.14,7.59-3.14s5.5,1.05,7.59,3.14c2.09,2.09,3.14,4.62,3.14,7.59v53.65Z"/><path class="cls-2" d="M686.64,611.88c7.33,7.33,11,16.19,11,26.56s-3.67,19.23-11,26.56c-7.33,7.33-16.19,11-26.56,11s-19.23-3.67-26.56-11-11-16.19-11-26.56,3.67-19.23,11-26.56c7.33-7.33,16.19-11,26.56-11s19.23,3.67,26.56,11Zm-26.56,10.46c-4.44,0-8.23,1.57-11.37,4.72-3.15,3.15-4.72,6.94-4.72,11.37s1.57,8.23,4.72,11.37c3.15,3.15,6.94,4.72,11.37,4.72s8.23-1.57,11.37-4.72,4.72-6.94,4.72-11.37-1.57-8.23-4.72-11.37-6.94-4.72-11.37-4.72Z"/><path class="cls-1" d="M326.74,762.28c2.97,0,5.5,1.05,7.59,3.14,2.09,2.09,3.14,4.62,3.14,7.59s-1.05,5.5-3.14,7.59c-2.09,2.09-4.62,3.14-7.59,3.14h-53.65c-2.97,0-5.5-1.05-7.59-3.14-2.09-2.09-3.14-4.62-3.14-7.59v-53.65c0-2.97,1.05-5.5,3.14-7.59,2.09-2.09,4.62-3.14,7.59-3.14s5.5,1.05,7.59,3.14c2.09,2.09,3.14,4.62,3.14,7.59v42.92h42.92Z"/><path class="cls-1" d="M368.7,773.01c0,2.97-1.05,5.5-3.14,7.59-2.09,2.09-4.62,3.14-7.59,3.14s-5.5-1.05-7.59-3.14c-2.09-2.09-3.14-4.62-3.14-7.59v-53.65c0-2.97,1.05-5.5,3.14-7.59,2.09-2.09,4.62-3.14,7.59-3.14s5.5,1.05,7.59,3.14c2.09,2.09,3.14,4.62,3.14,7.59v53.65Z"/><path class="cls-1" d="M453.57,773.01c0,2.97-1.05,5.5-3.14,7.59-2.09,2.09-4.62,3.14-7.59,3.14s-5.5-1.05-7.59-3.14c-2.09-2.09-3.14-4.62-3.14-7.59v-26.83c0-4.44-1.57-8.23-4.72-11.37-3.15-3.15-6.94-4.72-11.37-4.72s-8.23,1.57-11.37,4.72-4.72,6.94-4.72,11.37v26.83c0,2.97-1.05,5.5-3.14,7.59-2.09,2.09-4.62,3.14-7.59,3.14s-5.5-1.05-7.59-3.14-3.14-4.62-3.14-7.59v-26.83c0-10.37,3.67-19.23,11-26.56,7.33-7.33,16.19-11,26.56-11s19.23,3.67,26.56,11c7.33,7.33,11,16.19,11,26.56v26.83Z"/><path class="cls-1" d="M527.71,708.63c2.97,0,5.5,1.05,7.59,3.14,2.09,2.09,3.14,4.62,3.14,7.59s-1.05,5.5-3.14,7.59c-2.09,2.09-4.62,3.14-7.59,3.14h-26.83c-4.44,0-8.23,1.57-11.37,4.72-3.15,3.15-4.72,6.94-4.72,11.37s1.57,8.23,4.72,11.37c3.15,3.15,6.94,4.72,11.37,4.72s8.23-1.57,11.37-4.72c.21-.21,.41-.43,.59-.64h-11.96c-2.97,0-5.5-1.05-7.59-3.14-2.09-2.09-3.14-4.62-3.14-7.59s1.05-5.5,3.14-7.59c2.09-2.09,4.62-3.14,7.59-3.14h26.83c2.97,0,5.5,1.05,7.59,3.14,2.09,2.09,3.14,4.62,3.14,7.59v26.83c0,2.97-1.05,5.5-3.14,7.59-2.09,2.09-4.62,3.14-7.59,3.14s-5.49-1.06-7.57-3.17c-.46-.43-.86-.88-1.18-1.34-5.4,3-11.43,4.51-18.08,4.51-10.37,0-19.23-3.67-26.56-11s-11-16.19-11-26.56,3.67-19.23,11-26.56c7.33-7.33,16.19-11,26.56-11h26.83Z"/><path class="cls-1" d="M612.32,719.63c7.33,7.33,11,16.19,11,26.56s-3.67,19.23-11,26.56-16.19,11-26.56,11-19.23-3.67-26.56-11-11-16.19-11-26.56,3.67-19.23,11-26.56c7.33-7.33,16.19-11,26.56-11s19.23,3.67,26.56,11Zm-26.56,10.46c-4.44,0-8.23,1.57-11.37,4.72s-4.72,6.94-4.72,11.37,1.57,8.23,4.72,11.37,6.94,4.72,11.37,4.72,8.23-1.57,11.37-4.72c3.15-3.15,4.72-6.94,4.72-11.37s-1.57-8.23-4.72-11.37c-3.15-3.15-6.94-4.72-11.37-4.72Z"/></g><g><path class="cls-2" d="M397.16,296.26c-74.33,0-134.8,60.47-134.8,134.8v134.8h134.8c74.33,0,134.79-60.47,134.79-134.8s-60.47-134.8-134.79-134.8Zm0,248.9h-114.1v-114.1c0-62.91,51.19-114.1,114.1-114.1s114.1,51.19,114.1,114.1-51.18,114.1-114.1,114.1Z"/><g><path class="cls-1" d="M354.89,377.75c-14.2-.11-14.21,21.95,0,22.06,19.53,.15,38.14,7.7,51.98,21.53s21.38,32.46,21.53,51.98c.11,14.19,22.17,14.22,22.06,0-.19-25.22-10.11-49.7-27.99-67.58-17.88-17.88-42.35-27.8-67.58-27.99Z"/><path class="cls-1" d="M354.89,410.14c-14.2-.17-14.21,21.89,0,22.06,22.72,.27,40.84,18.43,41.12,41.12,.17,14.19,22.23,14.22,22.06,0-.42-34.69-28.49-62.76-63.18-63.18Z"/><path class="cls-1" d="M354.89,444.56c-5.77-.16-11.29,5.18-11.03,11.03,.27,6.11,4.85,10.86,11.03,11.03,.4,.01,.63,0,.77-.02,.04,.01,.06,.02,.1,.03,.22,.06,1.47,.47,1.73,.5,.51,.3,1.01,.63,1.55,.88-1.69-.78-.11-.12,.58,.57,.36,.36,1.11,1.57,1.03,1.4,.19,.32,.38,.64,.55,.97,.06,.21,.17,.62,.26,1.04,.06,.28,.1,.48,.14,.65-.01,.1-.02,.3,0,.68,.16,5.76,4.96,11.3,11.03,11.03,5.84-.26,11.2-4.85,11.03-11.03-.43-15.94-12.82-28.33-28.76-28.76Z"/></g></g></svg>